<svg width="588" height="564" viewBox="0 0 588 564" fill="none" xmlns="http://www.w3.org/2000/svg">
<path d="M438.527 162.017C386.619 211.063 335.671 171.653 312.313 144.635C288.955 117.616 302.031 113.221 353.939 64.1752C405.847 15.129 466.862 -2.72808 490.221 24.2902C513.579 51.3086 490.435 112.971 438.527 162.017Z" fill="black"/>
<path d="M438.527 162.017C386.619 211.063 335.671 171.653 312.313 144.635C288.955 117.616 302.031 113.221 353.939 64.1752C405.847 15.129 466.862 -2.72808 490.221 24.2902C513.579 51.3086 490.435 112.971 438.527 162.017Z" fill="black"/>
<path d="M438.527 162.017C386.619 211.063 335.671 171.653 312.313 144.635C288.955 117.616 302.031 113.221 353.939 64.1752C405.847 15.129 466.862 -2.72808 490.221 24.2902C513.579 51.3086 490.435 112.971 438.527 162.017Z" fill="black"/>
<path d="M351.533 125.948C353.605 197.17 370.93 140.121 335.233 142.879C299.537 145.637 300.33 131.888 225.315 116.635C223.242 45.4129 247.449 4.7405 283.146 1.98257C318.842 -0.775367 349.46 54.7257 351.533 125.948Z" fill="black"/>
<path d="M351.533 125.948C353.605 197.17 370.93 140.121 335.233 142.879C299.537 145.637 300.33 131.888 225.315 116.635C223.242 45.4129 247.449 4.7405 283.146 1.98257C318.842 -0.775367 349.46 54.7257 351.533 125.948Z" fill="black"/>
<path d="M351.533 125.948C353.605 197.17 370.93 140.121 335.233 142.879C299.537 145.637 300.33 131.888 225.315 116.635C223.242 45.4129 247.449 4.7405 283.146 1.98257C318.842 -0.775367 349.46 54.7257 351.533 125.948Z" fill="black"/>
<path d="M427.104 202.34C462.958 218.218 479.151 260.155 463.273 296.009L350.23 551.262L76.7921 430.166C40.9386 414.287 24.7454 372.35 40.6237 336.497L153.666 81.244L427.104 202.34Z" stroke="black" stroke-width="18"/>
<path d="M238.025 201.811L158.885 380.511L135.587 370.194L214.727 191.494L238.025 201.811ZM417.923 281.482L408.286 303.243L346.585 275.918L277.083 432.857L253.785 422.539L323.288 265.601L261.588 238.276L271.225 216.515L417.923 281.482Z" fill="black"/>
</svg>
